<svg xmlns="http://www.w3.org/2000/svg" viewBox="123 225 175 175"><style>.st2{fill:#F58120}.st3{fill:#DA4C27}.st4{fill:#148FCB}</style><path xmlns="http://www.w3.org/2000/svg" class="st2" d="M243.37,339.27c13.87-3.61,20.88-14.37,20.88-32.13v-12.38v-4.57v-4.95c0-11.11-2.74-19.49-8.19-25.09      c-5.45-5.6-13.61-8.41-24.43-8.41c-21.65,0-32.62,11.27-32.62,33.5v4.95v4.57v12.38c0,9.57,2.04,17.11,6.09,22.59      c-4.53,4.05-11.1,6.01-19.93,6.01c-3.06,0-5.84-0.24-8.37-0.71c-3.46-7.49-5.25-16.2-5.25-25.81v-14.46v-4.57v-7.03      c0-15.72,4.79-29.05,13.84-38.56c10.47-10.99,26.02-16.56,46.24-16.56c20.22,0,35.78,5.57,46.24,16.56      c9.05,9.51,13.84,22.84,13.84,38.56v7.03v4.57v14.46c0,15.72-4.79,29.05-13.84,38.56c-10.47,10.99-26.03,16.56-46.24,16.56      c-5.05,0-9.81-0.35-14.27-1.04c6.82-2.96,12.7-7,17.6-12.15C238.29,347.66,241.11,343.67,243.37,339.27z" />
			<path xmlns="http://www.w3.org/2000/svg" class="st3" d="M291.71,297.38v-7.19v4.57v14.46c0,15.72-4.79,29.05-13.84,38.56c-10.47,10.99-26.03,16.56-46.24,16.56        c-5.05,0-9.81-0.35-14.27-1.04c6.82-2.96,12.7-7,17.6-12.15c3.33-3.5,6.15-7.49,8.41-11.89        c13.87-3.61,20.88-14.37,20.88-32.13v-12.38v-4.57v-4.95c0-11.11-2.72-19.51-8.19-25.09c-1.52-1.55-7.72-8.41-24.43-8.41        C231.63,251.74,291.71,243.56,291.71,297.38z" />
					<path xmlns="http://www.w3.org/2000/svg" class="st4" d="M125.2,295v7.19v-4.57v-14.46c0-15.72,4.79-29.05,13.84-38.56c10.47-10.99,26.03-16.56,46.24-16.56      c5.05,0,9.81,0.35,14.27,1.04c-6.82,2.96-12.7,7-17.6,12.15c-3.33,3.5-6.15,7.49-8.41,11.89      c-13.87,3.61-20.88,14.37-20.88,32.13v12.38v4.57v4.95c0,11.11,2.72,19.51,8.19,25.09c1.52,1.55,7.72,8.41,24.43,8.41      C185.28,340.64,125.2,348.82,125.2,295z" />
			</svg>