<svg xmlns="http://www.w3.org/2000/svg" xmlns:xlink="http://www.w3.org/1999/xlink" version="1.1" id="Layer_1" x="0px" y="0px" style="enable-background:new 0 0 841.89 595.28;" xml:space="preserve" viewBox="125.15 228.04 602.76 184.69">
<style type="text/css">
	.st0{fill:#A7A9AC;}
	.st1{fill:#283A89;}
	.st2{fill:#F58120;}
	.st3{fill:#DA4C27;}
	.st4{fill:#148FCB;}
	.st5{fill:#273B88;}
</style>
<g>
	<path class="st0" d="M635.06,274.85"/>
</g>
<g>
	<g>
		<rect x="319.75" y="228.04" class="st1" width="28.04" height="136"/>
		<path class="st1" d="M453.56,305.62c0,22.7-11.21,34.21-33.32,34.21c-22.11,0-33.32-11.51-33.32-34.21v-77.58h-28.04v79.71    c0,16.05,4.89,29.67,14.13,39.38c10.69,11.22,26.58,16.91,47.22,16.91s36.53-5.69,47.22-16.91c9.25-9.71,14.13-23.32,14.13-39.38    v-79.71h-28.04V305.62z"/>
		<g>
			<g>
				<path class="st1" d="M517.55,228.04h-24.47v24.21h18.58c20.46,0,54.77,5.69,54.77,43.79c0,38.1-34.32,43.79-54.77,43.79h-25.19      c-2.05,3.86-4.56,7.38-7.52,10.49c-6.06,6.36-13.79,10.94-23.11,13.72h61.71c31.43,0,78.18-18.11,78.18-68      S548.97,228.04,517.55,228.04z"/>
			</g>
		</g>
		<g>
			<polygon class="st1" points="572.1,364.04 607.44,364.04 726.53,228.04 691.2,228.04    "/>
			<g>
				<g>
					<polygon class="st2" points="670.31,299.84 652.64,320.01 691.2,364.04 726.53,364.04      "/>
					<polygon class="st2" points="645.99,272.07 607.44,228.04 572.1,228.04 628.33,292.25      "/>
				</g>
			</g>
		</g>
	</g>
	<g>
		<g>
			<g>
				<path class="st2" d="M243.37,339.27c13.87-3.61,20.88-14.37,20.88-32.13v-12.38v-4.57v-4.95c0-11.11-2.74-19.49-8.19-25.09      c-5.45-5.6-13.61-8.41-24.43-8.41c-21.65,0-32.62,11.27-32.62,33.5v4.95v4.57v12.38c0,9.57,2.04,17.11,6.09,22.59      c-4.53,4.05-11.1,6.01-19.93,6.01c-3.06,0-5.84-0.24-8.37-0.71c-3.46-7.49-5.25-16.2-5.25-25.81v-14.46v-4.57v-7.03      c0-15.72,4.79-29.05,13.84-38.56c10.47-10.99,26.02-16.56,46.24-16.56c20.22,0,35.78,5.57,46.24,16.56      c9.05,9.51,13.84,22.84,13.84,38.56v7.03v4.57v14.46c0,15.72-4.79,29.05-13.84,38.56c-10.47,10.99-26.03,16.56-46.24,16.56      c-5.05,0-9.81-0.35-14.27-1.04c6.82-2.96,12.7-7,17.6-12.15C238.29,347.66,241.11,343.67,243.37,339.27z"/>
			</g>
			<g>
				<g>
					<g>
						<path class="st3" d="M291.71,297.38v-7.19v4.57v14.46c0,15.72-4.79,29.05-13.84,38.56c-10.47,10.99-26.03,16.56-46.24,16.56        c-5.05,0-9.81-0.35-14.27-1.04c6.82-2.96,12.7-7,17.6-12.15c3.33-3.5,6.15-7.49,8.41-11.89        c13.87-3.61,20.88-14.37,20.88-32.13v-12.38v-4.57v-4.95c0-11.11-2.72-19.51-8.19-25.09c-1.52-1.55-7.72-8.41-24.43-8.41        C231.63,251.74,291.71,243.56,291.71,297.38z"/>
					</g>
				</g>
			</g>
		</g>
		<g>
			<g>
				<g>
					<path class="st1" d="M173.54,253.11c-13.87,3.61-20.88,14.37-20.88,32.13v12.38v4.57v4.95c0,11.11,2.74,19.49,8.19,25.09       c5.45,5.6,13.61,8.41,24.43,8.41c21.65,0,32.62-11.27,32.62-33.5v-4.95v-4.57v-12.38c0-9.57-2.04-17.11-6.09-22.59       c4.53-4.05,11.1-6.01,19.93-6.01c3.06,0,5.84,0.24,8.37,0.71c3.46,7.49,5.25,16.2,5.25,25.81v14.46v4.57v7.03       c0,15.72-4.79,29.05-13.84,38.56c-10.47,10.99-26.02,16.56-46.24,16.56c-20.22,0-35.78-5.57-46.24-16.56       c-9.05-9.51-13.84-22.84-13.84-38.56v-7.03v-4.57v-14.46c0-15.72,4.79-29.05,13.84-38.56c10.47-10.99,26.03-16.56,46.24-16.56       c5.05,0,9.81,0.35,14.27,1.04c-6.82,2.96-12.7,7-17.6,12.15C178.62,244.73,175.81,248.71,173.54,253.11z"/>
				</g>
			</g>
			<g>
				<path class="st4" d="M125.2,295v7.19v-4.57v-14.46c0-15.72,4.79-29.05,13.84-38.56c10.47-10.99,26.03-16.56,46.24-16.56      c5.05,0,9.81,0.35,14.27,1.04c-6.82,2.96-12.7,7-17.6,12.15c-3.33,3.5-6.15,7.49-8.41,11.89      c-13.87,3.61-20.88,14.37-20.88,32.13v12.38v4.57v4.95c0,11.11,2.72,19.51,8.19,25.09c1.52,1.55,7.72,8.41,24.43,8.41      C185.28,340.64,125.2,348.82,125.2,295z"/>
			</g>
		</g>
	</g>
	<g>
		<rect x="125.15" y="390.69" class="st5" width="3.64" height="21.51"/>
		<polygon class="st5" points="147.96,406.52 137.72,390.85 137.61,390.69 133.26,390.69 133.26,412.19 136.9,412.19 136.9,396.02     147.37,412.19 151.6,412.19 151.6,390.69 147.96,390.69   "/>
		<polygon class="st5" points="153.77,393.97 160.44,393.97 160.44,412.19 164.08,412.19 164.08,393.97 170.74,393.97     170.74,390.69 153.77,390.69   "/>
		<polygon class="st5" points="176.55,402.69 186.36,402.69 186.36,399.46 176.55,399.46 176.55,393.97 186.98,393.97     186.98,390.69 172.91,390.69 172.91,412.19 187.42,412.19 187.42,408.88 176.55,408.88   "/>
		<polygon class="st5" points="194.34,390.69 190.7,390.69 190.7,412.19 203.62,412.19 203.62,408.88 194.34,408.88   "/>
		<polygon class="st5" points="209.49,390.69 205.85,390.69 205.85,412.19 218.77,412.19 218.77,408.88 209.49,408.88   "/>
		<rect x="221" y="390.69" class="st5" width="3.64" height="21.51"/>
		<path class="st5" d="M239.51,393.45c2.27,0,4.07,0.72,5.36,2.14l0.26,0.29l2.55-2.66l-0.26-0.25c-1.92-1.86-4.6-2.8-7.95-2.8    c-3.27,0-6.03,1.06-8.18,3.14c-2.16,2.09-3.25,4.82-3.25,8.11c0,3.3,1.08,6.03,3.22,8.14c2.14,2.1,4.91,3.17,8.24,3.17    c3,0,5.69-0.63,7.98-1.86l0.19-0.1v-10.65h-8.22v3.2h4.61v5.19c-1.18,0.59-2.69,0.88-4.48,0.88c-2.31,0-4.18-0.76-5.56-2.26    c-1.39-1.51-2.09-3.43-2.09-5.71c0-2.24,0.7-4.15,2.09-5.68C235.42,394.22,237.26,393.45,239.51,393.45z"/>
		<polygon class="st5" points="255.72,402.69 265.53,402.69 265.53,399.46 255.72,399.46 255.72,393.97 266.15,393.97     266.15,390.69 252.08,390.69 252.08,412.19 266.59,412.19 266.59,408.88 255.72,408.88   "/>
		<polygon class="st5" points="284.58,406.52 274.34,390.85 274.23,390.69 269.87,390.69 269.87,412.19 273.51,412.19     273.51,396.02 283.99,412.19 288.22,412.19 288.22,390.69 284.58,390.69   "/>
		<polygon class="st5" points="290.39,393.97 297.06,393.97 297.06,412.19 300.7,412.19 300.7,393.97 307.36,393.97 307.36,390.69     290.39,390.69   "/>
		<path class="st5" d="M329.41,403.96c0,1.54-0.4,2.84-1.17,3.89c-0.77,1.03-1.95,1.52-3.63,1.52c-1.67,0-2.86-0.5-3.62-1.52    c-0.78-1.04-1.17-2.35-1.17-3.89v-13.28h-3.64v13.45c0,2.37,0.73,4.41,2.17,6.07c1.46,1.67,3.56,2.52,6.27,2.52    c2.7,0,4.81-0.85,6.27-2.52c1.44-1.66,2.17-3.7,2.17-6.07v-13.45h-3.64V403.96z"/>
		<polygon class="st5" points="352.07,406.52 341.82,390.85 341.71,390.69 337.36,390.69 337.36,412.19 341,412.19 341,396.02     351.47,412.19 355.71,412.19 355.71,390.69 352.07,390.69   "/>
		<rect x="360.17" y="390.69" class="st5" width="3.64" height="21.51"/>
		<polygon class="st5" points="375.58,407.13 369.54,390.69 365.52,390.69 373.91,412.19 377.11,412.19 385.56,390.69     381.62,390.69   "/>
		<polygon class="st5" points="390.91,402.69 400.71,402.69 400.71,399.46 390.91,399.46 390.91,393.97 401.33,393.97     401.33,390.69 387.27,390.69 387.27,412.19 401.77,412.19 401.77,408.88 390.91,408.88   "/>
		<path class="st5" d="M418.37,400.73c0.98-1.02,1.48-2.34,1.48-3.92c0-2.12-0.75-3.69-2.22-4.68c-1.43-0.96-3.29-1.44-5.55-1.44    h-7.03v21.51h3.64v-9.24h2.53l5.28,9.24h4.39l-5.88-9.64C416.38,402.24,417.51,401.63,418.37,400.73z M408.69,393.89h3.19    c2.89,0,4.3,0.95,4.3,2.92c0,2-1.47,2.98-4.51,2.98h-2.98V393.89z"/>
		<path class="st5" d="M435.15,402.15c-0.37-0.41-0.9-0.81-1.58-1.18c-0.65-0.35-1.19-0.61-1.62-0.77    c-0.41-0.15-0.99-0.34-1.76-0.58c-0.75-0.25-1.32-0.45-1.68-0.59c-0.35-0.14-0.76-0.35-1.21-0.62c-0.41-0.25-0.7-0.53-0.86-0.85    c-0.17-0.33-0.25-0.74-0.25-1.23c0-0.98,0.35-1.7,1.08-2.21c0.76-0.53,1.63-0.8,2.61-0.8c0.78,0,1.51,0.16,2.17,0.49    c0.66,0.32,1.19,0.76,1.58,1.3l0.25,0.34l2.61-2.53l-0.23-0.26c-0.68-0.76-1.59-1.38-2.71-1.83c-2.23-0.9-4.9-0.87-7.05-0.06    c-1.11,0.41-2.05,1.12-2.82,2.1c-0.77,0.99-1.16,2.2-1.16,3.58c0,0.95,0.16,1.79,0.47,2.52c0.32,0.74,0.8,1.36,1.42,1.83    c0.6,0.46,1.19,0.82,1.74,1.07c0.55,0.25,1.23,0.51,2.03,0.77c0.72,0.21,1.23,0.38,1.55,0.49c0.32,0.12,0.73,0.29,1.25,0.53    c0.49,0.22,0.84,0.44,1.04,0.64c0.2,0.2,0.4,0.49,0.58,0.84c0.17,0.34,0.25,0.73,0.25,1.16c0,1.02-0.36,1.78-1.11,2.33    c-0.78,0.57-1.68,0.85-2.69,0.85c-0.88,0-1.71-0.21-2.48-0.63c-0.78-0.42-1.4-0.97-1.85-1.64l-0.23-0.34l-2.84,2.4l0.22,0.28    c0.8,1.02,1.85,1.82,3.13,2.36c1.26,0.54,2.61,0.81,4,0.81c2.07,0,3.86-0.57,5.32-1.71c1.49-1.15,2.24-2.83,2.24-4.97    c0-0.85-0.14-1.61-0.43-2.28C435.85,403.11,435.52,402.56,435.15,402.15z"/>
		<path class="st5" d="M446.84,390.69l-9.33,21.51h4.03l2.08-5.1H453l2.11,5.1h4.09l-9.24-21.51H446.84z M451.64,403.8h-6.7    l3.36-8.39L451.64,403.8z"/>
		<polygon class="st5" points="464.73,390.69 461.09,390.69 461.09,412.19 474.01,412.19 474.01,408.88 464.73,408.88   "/>
		<path class="st5" d="M498.31,393.16L498.31,393.16c-1.13-0.82-2.36-1.45-3.67-1.86c-1.31-0.41-2.69-0.62-4.12-0.62h-7.5v21.51h7.5    c1.4,0,2.79-0.22,4.12-0.66c1.33-0.44,2.57-1.08,3.69-1.92c1.13-0.84,2.05-1.99,2.74-3.41c0.69-1.41,1.04-3.02,1.04-4.77    c0-1.81-0.35-3.44-1.03-4.87C500.38,395.15,499.45,394,498.31,393.16z M486.66,393.94h3.27c2.48,0,4.52,0.66,6.04,1.97    c1.51,1.29,2.28,3.15,2.28,5.53c0,2.3-0.77,4.14-2.3,5.46c-1.54,1.33-3.57,2.01-6.03,2.01h-3.27V393.94z"/>
		<path class="st5" d="M511.57,390.69l-9.33,21.51h4.04l2.08-5.1h9.37l2.11,5.1h4.09l-9.24-21.51H511.57z M516.37,403.8h-6.7    l3.36-8.39L516.37,403.8z"/>
		<polygon class="st5" points="538.74,390.69 521.77,390.69 521.77,393.97 528.44,393.97 528.44,412.19 532.08,412.19     532.08,393.97 538.74,393.97   "/>
		<path class="st5" d="M545.91,390.69l-9.33,21.51h4.03l2.08-5.1h9.37l2.11,5.1h4.09l-9.24-21.51H545.91z M550.72,403.8h-6.7    l3.36-8.39L550.72,403.8z"/>
		<polygon class="st5" points="570.77,402.69 580.57,402.69 580.57,399.46 570.77,399.46 570.77,393.97 581.19,393.97     581.19,390.69 567.13,390.69 567.13,412.19 581.63,412.19 581.63,408.88 570.77,408.88   "/>
		<polygon class="st5" points="601.59,390.69 597.29,390.69 592.56,398.12 587.77,390.69 583.32,390.69 590.27,400.83 582.6,412.19     587.07,412.19 592.45,403.76 597.94,412.19 602.51,412.19 594.71,400.88   "/>
		<path class="st5" d="M619.62,406.81c-1.21,1.75-2.94,2.6-5.28,2.6c-2.23,0-4.04-0.76-5.39-2.27c-1.36-1.52-2.05-3.44-2.05-5.73    c0-2.24,0.7-4.15,2.09-5.68c1.38-1.52,3.21-2.29,5.44-2.29c1,0,1.95,0.21,2.84,0.64c0.88,0.42,1.56,0.97,2.03,1.64l0.22,0.31    l2.88-2.21l-0.21-0.29c-0.78-1.07-1.9-1.91-3.33-2.5c-1.41-0.58-2.9-0.88-4.43-0.88c-3.27,0-6.03,1.06-8.18,3.14    c-2.16,2.09-3.25,4.82-3.25,8.11c0,3.27,1.07,6.01,3.19,8.12c2.12,2.12,4.85,3.19,8.13,3.19c3.55,0,6.32-1.31,8.22-3.9l0.22-0.31    l-2.93-2.01L619.62,406.81z"/>
		<polygon class="st5" points="638.4,399.37 628.62,399.37 628.62,390.69 624.99,390.69 624.99,412.19 628.62,412.19 628.62,402.69     638.4,402.69 638.4,412.19 642.07,412.19 642.07,390.69 638.4,390.69   "/>
		<path class="st5" d="M653.29,390.69l-9.33,21.51H648l2.08-5.1h9.37l2.11,5.1h4.09l-9.24-21.51H653.29z M658.1,403.8h-6.7    l3.36-8.39L658.1,403.8z"/>
		<polygon class="st5" points="682.26,406.52 672.01,390.85 671.9,390.69 667.55,390.69 667.55,412.19 671.19,412.19 671.19,396.02     681.66,412.19 685.9,412.19 685.9,390.69 682.26,390.69   "/>
		<path class="st5" d="M700.77,393.45c2.27,0,4.07,0.72,5.37,2.14l0.26,0.29l2.55-2.66l-0.26-0.25c-1.92-1.86-4.6-2.8-7.95-2.8    c-3.27,0-6.03,1.06-8.18,3.14c-2.16,2.09-3.25,4.82-3.25,8.11c0,3.3,1.08,6.03,3.22,8.14c2.14,2.1,4.91,3.17,8.24,3.17    c3,0,5.69-0.63,7.98-1.86l0.19-0.1v-10.65h-8.22v3.2h4.61v5.19c-1.18,0.59-2.69,0.88-4.48,0.88c-2.31,0-4.18-0.76-5.56-2.26    c-1.39-1.51-2.09-3.43-2.09-5.71c0-2.24,0.7-4.15,2.09-5.68C696.68,394.22,698.52,393.45,700.77,393.45z"/>
		<polygon class="st5" points="716.98,408.88 716.98,402.69 726.79,402.69 726.79,399.46 716.98,399.46 716.98,393.97     727.91,393.97 727.91,390.69 713.35,390.69 713.35,412.19 727.85,412.19 727.85,408.88   "/>
	</g>
</g>
</svg>